<svg width="340" height="340" viewBox="0 0 340 340" fill="none" xmlns="http://www.w3.org/2000/svg">
<path d="M252.318 116.8L94.0046 114.576L129.136 137.256L152.705 167.94L167.825 272L183.389 167.94L252.318 116.8Z" fill="#C08A20" stroke="#3F302B" stroke-width="1.7788"/>
<path d="M169.159 79L86 193.288L169.159 164.382L254.541 203.516L169.159 79Z" fill="#C58D20" stroke="#97422E" stroke-width="1.7788"/>
<circle cx="169.159" cy="124.804" r="9.33871" fill="#131D5B" stroke="#311D29" stroke-width="1.7788"/>
<path d="M295.3 253.534L284.423 254.283L289.294 257.638C289.974 258.106 290.5 258.325 290.874 258.295C291.381 258.251 291.846 257.91 292.269 257.273L292.578 257.486L289.999 261.229L289.69 261.016C289.959 260.494 290.101 260.116 290.116 259.88C290.132 259.653 290.062 259.415 289.904 259.167C289.748 258.928 289.403 258.625 288.868 258.257L279.436 251.759L279.631 251.475L294.342 250.311L287.14 245.35C286.488 244.901 285.946 244.746 285.515 244.884C285.079 245.027 284.729 245.291 284.464 245.675L284.28 245.943L283.971 245.73L286.739 241.711L287.048 241.924C286.624 242.552 286.453 243.074 286.535 243.492C286.617 243.91 286.958 244.326 287.56 244.74L295.555 250.248L296.023 250.213C296.489 250.181 296.832 250.105 297.054 249.986C297.275 249.868 297.51 249.64 297.759 249.302L298.068 249.515L295.3 253.534Z" fill="#B4424D"/>
<path d="M304.378 238.351C303.457 240.341 302.08 241.636 300.249 242.237C298.415 242.845 296.588 242.685 294.767 241.759C293.212 240.967 292.075 239.816 291.357 238.305C290.403 236.302 290.486 234.2 291.605 232C292.728 229.793 294.343 228.468 296.451 228.023C298.118 227.672 299.761 227.908 301.383 228.733C303.203 229.66 304.405 231.049 304.988 232.901C305.574 234.763 305.371 236.579 304.378 238.351ZM303.744 238.165C304.315 237.043 304.176 235.899 303.328 234.732C302.63 233.777 301.401 232.852 299.641 231.956C297.549 230.892 295.816 230.473 294.441 230.699C293.481 230.856 292.766 231.395 292.297 232.318C291.981 232.939 291.868 233.534 291.958 234.103C292.074 234.83 292.478 235.555 293.172 236.28C293.872 237.008 294.903 237.719 296.265 238.412C297.887 239.237 299.175 239.703 300.13 239.809C301.091 239.919 301.857 239.823 302.428 239.521C302.996 239.226 303.434 238.774 303.744 238.165Z" fill="#B4424D"/>
<path d="M296.926 222.174L296.575 222.041L299.135 215.318L299.485 215.452L299.323 215.879C299.181 216.251 299.133 216.577 299.179 216.855C299.205 217.053 299.309 217.237 299.49 217.408C299.615 217.535 300 217.721 300.645 217.967L309.102 221.186C309.76 221.437 310.184 221.558 310.375 221.551C310.565 221.544 310.762 221.456 310.964 221.287C311.17 221.127 311.341 220.866 311.478 220.506L311.641 220.079L311.991 220.213L309.432 226.935L309.081 226.802L309.244 226.375C309.386 226.002 309.434 225.677 309.388 225.398C309.362 225.2 309.259 225.013 309.081 224.836C308.955 224.709 308.57 224.523 307.926 224.277L299.468 221.058C298.811 220.807 298.387 220.686 298.196 220.693C298.003 220.706 297.803 220.793 297.597 220.953C297.395 221.123 297.226 221.387 297.089 221.748L296.926 222.174Z" fill="#B4424D"/>
<path d="M314.165 214.68L309.721 213.547L309.833 213.147C310.993 213.269 312.013 213.053 312.892 212.499C313.776 211.954 314.339 211.251 314.58 210.392C314.767 209.728 314.736 209.15 314.488 208.659C314.244 208.176 313.891 207.869 313.429 207.739C313.136 207.657 312.856 207.652 312.59 207.725C312.231 207.828 311.843 208.045 311.426 208.378C311.125 208.624 310.546 209.223 309.688 210.176C308.49 211.512 307.477 212.355 306.648 212.705C305.821 213.049 304.971 213.098 304.099 212.853C302.992 212.542 302.16 211.841 301.602 210.749C301.049 209.667 300.959 208.461 301.333 207.133C301.45 206.716 301.603 206.334 301.792 205.987C301.981 205.639 302.271 205.219 302.663 204.725C302.881 204.449 303.018 204.21 303.075 204.008C303.122 203.839 303.108 203.641 303.03 203.416C302.953 203.19 302.798 202.982 302.564 202.789L302.665 202.428L307.666 203.833L307.564 204.195C306.077 204.086 304.848 204.334 303.877 204.939C302.911 205.553 302.295 206.332 302.03 207.276C301.825 208.005 301.861 208.641 302.137 209.182C302.412 209.73 302.813 210.078 303.34 210.226C303.653 210.314 303.979 210.315 304.32 210.228C304.659 210.147 305.006 209.974 305.361 209.709C305.724 209.445 306.237 208.943 306.902 208.203C307.833 207.164 308.581 206.44 309.146 206.03C309.711 205.62 310.29 205.343 310.885 205.202C311.478 205.066 312.084 205.085 312.703 205.259C313.758 205.555 314.547 206.195 315.072 207.179C315.597 208.162 315.693 209.243 315.362 210.422C315.241 210.852 315.072 211.254 314.855 211.628C314.69 211.912 314.44 212.242 314.102 212.618C313.769 213.002 313.578 213.282 313.529 213.458C313.481 213.627 313.496 213.775 313.573 213.902C313.649 214.029 313.874 214.191 314.248 214.387L314.165 214.68Z" fill="#B4424D"/>
<path d="M304.201 198.648L303.832 198.58L305.149 191.508L305.518 191.577L305.435 192.026C305.362 192.418 305.373 192.747 305.468 193.012C305.529 193.202 305.663 193.365 305.872 193.5C306.018 193.603 306.43 193.718 307.108 193.844L316.005 195.501C316.697 195.629 317.136 195.673 317.322 195.632C317.509 195.591 317.686 195.47 317.854 195.267C318.028 195.072 318.151 194.786 318.221 194.407L318.305 193.958L318.674 194.027L317.357 201.098L316.988 201.029L317.072 200.58C317.145 200.188 317.134 199.859 317.038 199.594C316.978 199.404 316.843 199.238 316.636 199.096C316.49 198.993 316.078 198.878 315.4 198.752L306.503 197.095C305.811 196.967 305.372 196.923 305.186 196.964C304.998 197.011 304.817 197.132 304.644 197.327C304.475 197.53 304.356 197.82 304.285 198.199L304.201 198.648Z" fill="#B4424D"/>
<path d="M319.461 189.548L319.087 189.517C319.047 189.012 318.817 188.545 318.398 188.117C318.084 187.806 317.326 187.32 316.125 186.659L306.035 181.081L306.062 180.748L317.346 176.936C318.707 176.477 319.51 176.159 319.755 175.983C320 175.813 320.174 175.464 320.278 174.936L320.652 174.967L320.116 181.539L319.741 181.509L319.76 181.286C319.808 180.693 319.767 180.283 319.636 180.055C319.548 179.891 319.406 179.802 319.21 179.786C319.089 179.776 318.942 179.791 318.769 179.831C318.603 179.872 318.146 180.018 317.4 180.269L310.336 182.634L316.191 185.84C316.9 186.224 317.376 186.463 317.619 186.557C317.862 186.652 318.072 186.706 318.247 186.72C318.449 186.737 318.632 186.698 318.796 186.602C318.96 186.507 319.091 186.359 319.189 186.156C319.327 185.876 319.416 185.496 319.455 185.017L319.829 185.048L319.461 189.548Z" fill="#B4424D"/>
<path d="M319.574 162.391L313.979 162.629L313.99 162.903C314.028 163.775 314.328 164.395 314.892 164.763C315.456 165.132 316.274 165.348 317.347 165.41L317.363 165.796L310.166 166.102L310.15 165.717C310.93 165.602 311.565 165.402 312.054 165.118C312.543 164.84 312.865 164.525 313.019 164.173C313.18 163.821 313.246 163.317 313.219 162.661L309.347 162.826C308.59 162.858 308.128 162.909 307.962 162.977C307.796 163.051 307.662 163.179 307.562 163.359C307.461 163.539 307.419 163.826 307.436 164.217L307.471 165.038C307.525 166.322 307.866 167.337 308.494 168.082C309.122 168.834 310.051 169.353 311.281 169.639L311.297 170.014L306.902 169.581L306.397 157.702L306.772 157.686L306.791 158.142C306.808 158.541 306.893 158.859 307.045 159.096C307.147 159.268 307.315 159.396 307.549 159.481C307.714 159.548 308.142 159.567 308.831 159.538L317.872 159.153C318.494 159.127 318.875 159.094 319.016 159.054C319.249 158.976 319.426 158.843 319.547 158.655C319.725 158.391 319.805 158.035 319.786 157.589L319.767 157.133L320.142 157.117L320.631 168.622L316.566 168.795L316.55 168.409C317.535 168.171 318.236 167.864 318.653 167.487C319.071 167.117 319.367 166.604 319.542 165.947C319.648 165.563 319.679 164.851 319.634 163.81L319.574 162.391Z" fill="#B4424D"/>
<path d="M310.765 153.246L305.916 153.515L303.943 141.461L304.313 141.4L304.387 141.851C304.451 142.245 304.573 142.55 304.753 142.768C304.875 142.926 305.057 143.033 305.299 143.089C305.471 143.137 305.898 143.105 306.579 142.993L315.509 141.531C316.203 141.417 316.631 141.31 316.793 141.208C316.954 141.106 317.08 140.931 317.17 140.684C317.267 140.441 317.285 140.13 317.222 139.75L317.149 139.299L317.519 139.238L318.704 146.477L318.334 146.538L318.237 145.947C318.172 145.553 318.05 145.248 317.871 145.03C317.749 144.872 317.566 144.762 317.323 144.699C317.151 144.651 316.724 144.684 316.044 144.795L307.393 146.211C306.699 146.325 306.262 146.437 306.081 146.549C305.908 146.66 305.793 146.84 305.738 147.089C305.705 147.265 305.741 147.674 305.846 148.315L306.031 149.446C306.149 150.167 306.374 150.747 306.707 151.186C307.039 151.625 307.507 151.973 308.111 152.231C308.717 152.495 309.579 152.697 310.698 152.835L310.765 153.246Z" fill="#B4424D"/>
<path d="M313.492 127.119L308.113 128.677L308.19 128.94C308.432 129.778 308.872 130.309 309.507 130.534C310.142 130.758 310.988 130.774 312.045 130.58L312.152 130.95L305.234 132.955L305.126 132.585C305.857 132.288 306.426 131.944 306.834 131.551C307.243 131.165 307.481 130.783 307.547 130.405C307.62 130.024 307.565 129.519 307.383 128.889L303.66 129.967C302.933 130.178 302.496 130.336 302.351 130.442C302.207 130.554 302.108 130.71 302.053 130.909C301.998 131.108 302.025 131.395 302.134 131.772L302.363 132.562C302.72 133.796 303.292 134.7 304.079 135.275C304.867 135.857 305.892 136.141 307.156 136.127L307.26 136.487L302.888 137.11L299.579 125.689L299.94 125.585L300.067 126.023C300.178 126.406 300.336 126.695 300.54 126.89C300.68 127.032 300.873 127.117 301.12 127.144C301.297 127.17 301.717 127.087 302.379 126.895L311.071 124.377C311.669 124.204 312.031 124.081 312.158 124.009C312.367 123.878 312.507 123.707 312.58 123.496C312.69 123.196 312.683 122.832 312.559 122.403L312.432 121.965L312.793 121.861L315.997 132.92L312.09 134.053L311.983 133.682C312.883 133.217 313.491 132.752 313.807 132.288C314.125 131.829 314.291 131.26 314.305 130.58C314.317 130.182 314.178 129.483 313.888 128.483L313.492 127.119Z" fill="#B4424D"/>
<path d="M310.979 116.823L307.552 118.279L307.409 117.943C308.115 117.408 308.588 116.947 308.827 116.558C309.072 116.167 309.208 115.717 309.233 115.206C309.245 114.922 309.125 114.484 308.874 113.893L308.473 112.95L298.706 117.1C298.059 117.375 297.669 117.581 297.536 117.718C297.406 117.862 297.322 118.062 297.285 118.321C297.257 118.583 297.319 118.894 297.473 119.255L297.651 119.675L297.306 119.822L294.489 113.193L294.834 113.046L295.013 113.466C295.169 113.833 295.36 114.101 295.586 114.27C295.742 114.395 295.945 114.459 296.197 114.462C296.375 114.467 296.782 114.335 297.417 114.065L307.184 109.915L306.795 109C306.433 108.147 305.989 107.605 305.464 107.372C304.73 107.045 303.865 107.008 302.871 107.261L302.72 106.907L306.147 105.451L310.979 116.823Z" fill="#B4424D"/>
<path d="M291.965 81.4677L295.864 87.4027L295.551 87.6089L295.356 87.3121C295.062 86.8656 294.812 86.5891 294.604 86.4827C294.406 86.3782 294.201 86.343 293.989 86.3773C293.78 86.4171 293.348 86.6525 292.693 87.0833L287.063 90.7826C286.034 91.4586 285.403 91.9824 285.17 92.3542C284.94 92.7316 284.832 93.1708 284.846 93.6717C284.859 94.1727 285.044 94.6945 285.401 95.2371C285.81 95.8589 286.295 96.2964 286.858 96.5496C287.431 96.8048 288.033 96.8783 288.666 96.7699C289.303 96.6672 290.232 96.2148 291.452 95.4125L296.141 92.3316C296.656 91.9937 296.988 91.6985 297.138 91.4463C297.287 91.194 297.351 90.9581 297.328 90.7385C297.291 90.3987 297.12 89.997 296.815 89.5335L297.129 89.3274L299.742 93.3039L299.428 93.51L299.272 93.2726C299.061 92.9505 298.819 92.7247 298.548 92.5953C298.277 92.4659 297.98 92.4386 297.657 92.5134C297.427 92.5588 297.078 92.7356 296.609 93.0439L292.243 95.913C290.892 96.8007 289.857 97.3509 289.139 97.5638C288.425 97.7822 287.59 97.712 286.633 97.3529C285.677 96.9939 284.807 96.218 284.024 95.0253C283.37 94.0305 282.998 93.1745 282.907 92.4573C282.782 91.4791 282.902 90.6517 283.267 89.9751C283.631 89.2984 284.291 88.6462 285.247 88.0186L290.876 84.3193C291.538 83.8847 291.923 83.5787 292.033 83.4012C292.149 83.22 292.195 83.0074 292.173 82.7634C292.15 82.5194 291.976 82.1562 291.651 81.6738L291.965 81.4677Z" fill="#B4424D"/>
<path d="M288.118 75.9455L284.452 79.1208L284.207 78.8371C284.912 77.6266 285.229 76.453 285.157 75.3162C285.085 74.1795 284.696 73.2048 283.992 72.3919C283.319 71.6149 282.539 71.1587 281.652 71.0232C280.77 70.8833 279.845 71.0448 278.877 71.5077C277.909 71.9705 277.014 72.5585 276.191 73.2715C275.194 74.135 274.421 75.0099 273.874 75.896C273.326 76.7822 273.101 77.6388 273.2 78.4658C273.304 79.2979 273.668 80.0743 274.292 80.7951C274.509 81.0456 274.756 81.2791 275.033 81.4955C275.32 81.7126 275.634 81.9149 275.975 82.1024L278.137 80.2291C278.546 79.8748 278.785 79.6186 278.854 79.4605C278.928 79.298 278.936 79.0852 278.878 78.8222C278.825 78.5642 278.69 78.31 278.473 78.0595L278.24 77.7911L278.524 77.5453L282.902 82.5986L282.618 82.8444C282.26 82.4831 281.974 82.2612 281.759 82.1787C281.554 82.0969 281.324 82.0948 281.069 82.1725C280.932 82.2106 280.675 82.3935 280.296 82.7212L278.134 84.5945C277.262 84.1868 276.439 83.6868 275.667 83.0944C274.893 82.5116 274.172 81.8342 273.504 81.0623C272.649 80.0756 272.071 79.14 271.77 78.2554C271.478 77.3715 271.333 76.4908 271.333 75.6134C271.344 74.7367 271.5 73.9208 271.804 73.1658C272.199 72.1968 272.834 71.3336 273.708 70.5764C275.272 69.2212 277.07 68.626 279.101 68.7906C281.131 68.9553 282.869 69.8709 284.312 71.5374C284.76 72.0537 285.122 72.5544 285.399 73.0393C285.553 73.2997 285.75 73.7645 285.989 74.4337C286.239 75.1037 286.403 75.4847 286.483 75.5767C286.607 75.7198 286.773 75.8084 286.982 75.8426C287.195 75.8723 287.492 75.812 287.872 75.6618L288.118 75.9455Z" fill="#B4424D"/>
<path d="M264.502 52.5983L269.82 57.3044L269.572 57.5855L269.306 57.3502C268.906 56.9961 268.591 56.7949 268.363 56.7466C268.145 56.6976 267.938 56.7175 267.742 56.8061C267.551 56.8992 267.196 57.2396 266.676 57.8271L262.212 62.8722C261.396 63.7941 260.924 64.4649 260.797 64.8848C260.674 65.3092 260.685 65.7613 260.829 66.2412C260.973 66.7211 261.289 67.1762 261.775 67.6065C262.332 68.0995 262.916 68.3944 263.525 68.4913C264.144 68.5877 264.745 68.5006 265.328 68.2303C265.915 67.9644 266.693 67.2844 267.661 66.1903L271.379 61.9886C271.787 61.5277 272.03 61.1559 272.108 60.8732C272.187 60.5905 272.186 60.3461 272.107 60.1402C271.982 59.822 271.712 59.4791 271.296 59.1116L271.545 58.8305L275.109 61.9835L274.86 62.2647L274.647 62.0764C274.358 61.8209 274.066 61.6663 273.771 61.6125C273.475 61.5587 273.181 61.6102 272.889 61.767C272.68 61.8708 272.389 62.1329 272.017 62.5534L268.555 66.4663C267.484 67.6769 266.629 68.479 265.992 68.8725C265.36 69.2704 264.536 69.4214 263.519 69.3254C262.502 69.2295 261.459 68.7086 260.39 67.7629C259.499 66.9741 258.915 66.2455 258.64 65.5772C258.263 64.6659 258.162 63.8359 258.337 63.0874C258.511 62.3388 258.977 61.5365 259.735 60.6805L264.199 55.6355C264.723 55.0428 265.015 54.6465 265.075 54.4464C265.139 54.2412 265.128 54.0239 265.042 53.7943C264.956 53.5648 264.693 53.2598 264.253 52.8795L264.502 52.5983Z" fill="#B4424D"/>
<path d="M255.103 56.6335L251.948 60.3258L241.869 53.4251L242.081 53.1153L242.458 53.3733C242.787 53.5987 243.093 53.7216 243.374 53.742C243.572 53.7632 243.776 53.7057 243.984 53.5694C244.137 53.4775 244.408 53.1469 244.798 52.5777L249.91 45.1106C250.308 44.5302 250.525 44.1465 250.563 43.9593C250.601 43.7722 250.562 43.5607 250.445 43.3247C250.337 43.087 250.124 42.8593 249.806 42.6415L249.429 42.3835L249.641 42.0738L255.694 46.2177L255.481 46.5274L254.988 46.1893C254.658 45.9638 254.353 45.8409 254.072 45.8206C253.873 45.7994 253.667 45.855 253.454 45.9874C253.301 46.0793 253.029 46.4099 252.639 46.9791L247.687 54.2118C247.29 54.7922 247.069 55.1862 247.026 55.3939C246.985 55.596 247.036 55.803 247.178 56.0149C247.283 56.1606 247.604 56.4169 248.14 56.7837L249.085 57.4314C249.688 57.8441 250.263 58.0819 250.81 58.145C251.357 58.208 251.932 58.1101 252.536 57.8511C253.145 57.596 253.886 57.1118 254.76 56.3985L255.103 56.6335Z" fill="#B4424D"/>
<path d="M238.097 36.6123L235.507 41.5781L235.75 41.7047C236.524 42.1081 237.211 42.1576 237.813 41.8531C238.414 41.5487 239.009 40.9477 239.599 40.0502L239.941 40.2284L236.611 46.6155L236.269 46.4373C236.56 45.7041 236.704 45.0546 236.701 44.4889C236.705 43.9263 236.593 43.4902 236.365 43.1808C236.141 42.8654 235.737 42.5561 235.156 42.2528L233.364 45.6892C233.014 46.3609 232.827 46.7858 232.802 46.9639C232.784 47.1451 232.828 47.3243 232.934 47.5015C233.04 47.6788 233.267 47.8581 233.615 48.0395L234.343 48.4194C235.483 49.0135 236.532 49.2249 237.491 49.0536C238.456 48.8855 239.369 48.3398 240.232 47.4166L240.565 47.5902L237.995 51.1813L227.451 45.6842L227.625 45.3513L228.03 45.5624C228.384 45.7469 228.701 45.8324 228.983 45.8191C229.183 45.8164 229.378 45.735 229.568 45.5749C229.709 45.4653 229.939 45.1047 230.258 44.493L234.442 36.4686C234.729 35.9169 234.891 35.5702 234.927 35.4286C234.976 35.1875 234.95 34.9677 234.847 34.7693C234.707 34.4826 234.439 34.236 234.043 34.0296L233.638 33.8185L233.812 33.4857L244.022 38.8093L242.141 42.4167L241.799 42.2384C242.085 41.2662 242.169 40.5052 242.051 39.9557C241.939 39.4093 241.643 38.896 241.161 38.4159C240.881 38.1328 240.28 37.7505 239.356 37.269L238.097 36.6123Z" fill="#B4424D"/>
<path d="M228.917 31.3173L227.602 34.8008L227.26 34.6719C227.361 33.7918 227.354 33.1312 227.238 32.69C227.125 32.2425 226.893 31.8332 226.541 31.462C226.344 31.2573 225.945 31.0416 225.344 30.8147L224.385 30.4529L220.638 40.3814C220.39 41.0395 220.269 41.4639 220.277 41.6547C220.291 41.8479 220.378 42.0472 220.539 42.2525C220.709 42.454 220.977 42.6239 221.344 42.7624L221.771 42.9236L221.639 43.2748L214.9 40.7315L215.032 40.3803L215.459 40.5415C215.833 40.6824 216.158 40.7294 216.436 40.6825C216.634 40.656 216.821 40.5531 216.997 40.3738C217.124 40.2482 217.31 39.8626 217.553 39.2172L221.3 29.2887L220.37 28.9377C219.503 28.6105 218.804 28.5564 218.273 28.7754C217.529 29.0802 216.905 29.6797 216.402 30.574L216.041 30.4379L217.356 26.9543L228.917 31.3173Z" fill="#B4424D"/>
<path d="M197.616 22.8007L196.549 28.3501L196.938 28.4248C197.536 28.5397 198.041 28.5438 198.454 28.4372C198.867 28.3307 199.244 28.0897 199.585 27.7144C199.932 27.3404 200.215 26.7991 200.434 26.0904L200.783 26.1574L199.479 32.9422L199.13 32.8752C199.25 31.569 199.067 30.6591 198.58 30.1454C198.101 29.6264 197.507 29.2986 196.796 29.162L196.408 29.0873L195.613 33.222C195.48 33.9127 195.434 34.3515 195.474 34.5382C195.52 34.7262 195.64 34.9077 195.834 35.0827C196.035 35.2523 196.325 35.3734 196.704 35.4462L197.152 35.5324L197.082 35.901L190.018 34.5434L190.089 34.1748L190.537 34.261C190.929 34.3363 191.258 34.3272 191.524 34.2336C191.714 34.1738 191.878 34.04 192.014 33.832C192.118 33.6866 192.235 33.2752 192.365 32.5977L194.073 23.7108C194.206 23.02 194.252 22.5813 194.212 22.3946C194.172 22.2078 194.052 22.0297 193.85 21.8601C193.656 21.6851 193.37 21.5612 192.992 21.4885L192.543 21.4023L192.614 21.0337L204.012 23.2242L203.267 27.0998L202.859 27.0213C202.94 26.0935 202.831 25.3733 202.53 24.8609C202.236 24.3498 201.744 23.935 201.054 23.6165C200.675 23.4403 199.947 23.2488 198.871 23.042L197.616 22.8007Z" fill="#B4424D"/>
<path d="M179.841 19.5678C182.033 19.6312 183.766 20.3861 185.04 21.8326C186.32 23.2795 186.893 25.022 186.758 27.0602C186.644 28.8014 186.033 30.2997 184.927 31.5552C183.461 33.2208 181.496 33.9724 179.033 33.8098C176.563 33.6467 174.708 32.6838 173.469 30.921C172.49 29.5279 172.061 27.9236 172.18 26.1082C172.315 24.07 173.119 22.4183 174.592 21.1531C176.072 19.8816 177.822 19.3532 179.841 19.5678ZM179.92 20.2237C178.664 20.1409 177.667 20.719 176.928 21.958C176.325 22.9757 175.959 24.4698 175.829 26.4405C175.674 28.7823 175.972 30.5406 176.721 31.7152C177.243 32.5359 178.02 32.9804 179.053 33.0485C179.748 33.0944 180.34 32.964 180.828 32.6573C181.45 32.2646 181.958 31.6067 182.351 30.6837C182.744 29.7539 182.991 28.5264 183.092 27.0012C183.212 25.1858 183.133 23.8181 182.854 22.8982C182.577 21.9716 182.187 21.3054 181.685 20.8994C181.19 20.4939 180.601 20.2687 179.92 20.2237Z" fill="#B4424D"/>
<path d="M149.3 20.8435L157.077 28.4848L156.356 22.6142C156.255 21.7952 156.07 21.2558 155.799 20.996C155.429 20.6462 154.866 20.5246 154.109 20.6312L154.063 20.2586L158.574 19.7046L158.62 20.0772C158.052 20.2219 157.674 20.3671 157.488 20.5127C157.307 20.6507 157.176 20.861 157.095 21.1435C157.02 21.4185 157.022 21.8782 157.101 22.5227L158.497 33.8913L158.155 33.9333L147.525 23.6987L148.591 32.3787C148.687 33.1641 148.93 33.6726 149.32 33.9042C149.716 34.1349 150.146 34.2218 150.609 34.1649L150.931 34.1253L150.977 34.4979L146.134 35.0927L146.088 34.7202C146.839 34.6211 147.344 34.4024 147.602 34.064C147.86 33.7257 147.945 33.194 147.856 32.469L146.672 22.8324L146.336 22.5057C146.002 22.1787 145.718 21.9717 145.483 21.8848C145.247 21.7978 144.92 21.7732 144.502 21.8109L144.457 21.4383L149.3 20.8435Z" fill="#B4424D"/>
<path d="M131.917 24.1239C134.017 23.4932 135.9 23.6635 137.564 24.6348C139.236 25.6044 140.329 27.0775 140.843 29.0542C141.283 30.7429 141.176 32.3573 140.521 33.8976C139.656 35.9402 138.028 37.2726 135.639 37.8946C133.243 38.5184 131.18 38.1891 129.448 36.9068C128.08 35.8932 127.167 34.5061 126.708 32.7454C126.193 30.7687 126.436 28.9479 127.435 27.2829C128.439 25.6097 129.933 24.5567 131.917 24.1239ZM132.198 24.7216C130.981 25.0386 130.217 25.9016 129.906 27.3105C129.654 28.4662 129.778 29.9997 130.275 31.9109C130.867 34.1821 131.703 35.757 132.785 36.6355C133.539 37.2499 134.416 37.4267 135.418 37.166C136.092 36.9904 136.612 36.6802 136.979 36.2354C137.446 35.6665 137.72 34.8821 137.802 33.8823C137.883 32.8759 137.73 31.6331 137.345 30.1538C136.887 28.3932 136.38 27.1202 135.826 26.3349C135.271 25.543 134.691 25.0336 134.087 24.8065C133.489 24.5778 132.859 24.5495 132.198 24.7216Z" fill="#B4424D"/>
<path d="M124.757 40.4316L124.89 40.7827L118.162 43.3276L118.029 42.9765L118.456 42.815C118.829 42.6738 119.105 42.4937 119.282 42.2747C119.413 42.124 119.482 41.9243 119.489 41.6757C119.502 41.4975 119.386 41.0858 119.142 40.4406L115.94 31.9764C115.691 31.3185 115.501 30.9204 115.369 30.7823C115.237 30.6441 115.041 30.5556 114.78 30.5168C114.524 30.4692 114.215 30.5137 113.854 30.6501L113.427 30.8116L113.295 30.4605L120.022 27.9156L120.155 28.2666L119.728 28.4282C119.355 28.5694 119.08 28.7495 118.902 28.9684C118.771 29.1192 118.699 29.3201 118.685 29.5711C118.673 29.7492 118.789 30.1609 119.033 30.8062L122.235 39.2704C122.484 39.9283 122.674 40.3264 122.806 40.4645C122.944 40.6003 123.142 40.6919 123.398 40.7395C123.659 40.7783 123.969 40.7295 124.33 40.5931L124.757 40.4316Z" fill="#B4424D"/>
<path d="M108.649 32.3474L110.302 35.6837L109.974 35.8458C109.399 35.1723 108.911 34.7273 108.509 34.5111C108.105 34.2888 107.647 34.1798 107.136 34.184C106.851 34.189 106.421 34.3341 105.846 34.6194L104.927 35.0743L109.639 44.5831C109.951 45.2134 110.179 45.5908 110.324 45.7154C110.475 45.8369 110.68 45.9087 110.94 45.9309C111.204 45.9439 111.511 45.8634 111.862 45.6892L112.271 45.4865L112.438 45.8229L105.984 49.0207L105.817 48.6844L106.226 48.4817C106.584 48.3045 106.84 48.0983 106.995 47.8629C107.111 47.7 107.163 47.493 107.152 47.2419C107.146 47.0634 106.99 46.6651 106.684 46.0469L101.973 36.5381L101.082 36.9795C100.252 37.3908 99.7359 37.8654 99.5343 38.403C99.2503 39.1552 99.2637 40.0203 99.5748 40.9984L99.2293 41.1696L97.5763 37.8333L108.649 32.3474Z" fill="#B4424D"/>
<path d="M93.3145 51.9759L89.2603 54.6554L89.5163 56.0914C89.6044 56.5683 89.7287 56.928 89.889 57.1706C90.1016 57.4922 90.388 57.6434 90.7482 57.6243C90.9602 57.6138 91.3802 57.4336 92.0082 57.0834L92.2151 57.3966L88.398 59.9194L88.191 59.6062C88.5619 59.2719 88.7886 58.8789 88.871 58.4271C88.9498 57.9697 88.8948 57.1751 88.7061 56.0432L86.7585 44.1724L86.9193 44.0661L97.2784 50.7424C98.2626 51.3729 98.9581 51.7199 99.365 51.7834C99.6724 51.8316 100.01 51.7541 100.379 51.5511L100.586 51.8643L95.0336 55.5338L94.8266 55.2207L95.0551 55.0696C95.5009 54.775 95.773 54.506 95.8715 54.2625C95.936 54.0902 95.9123 53.9194 95.8004 53.7501C95.7333 53.6486 95.6474 53.5554 95.5427 53.4705C95.4978 53.4272 95.2733 53.2715 94.8692 53.0036L93.3145 51.9759ZM92.6128 51.5398L88.2908 48.7172L89.1426 53.8333L92.6128 51.5398Z" fill="#B4424D"/>
<path d="M85.7453 61.6499L85.9833 61.9402L80.4203 66.5L80.1823 66.2097L80.5354 65.9203C80.844 65.6673 81.0475 65.4087 81.1457 65.1445C81.2217 64.9598 81.2234 64.7485 81.1509 64.5107C81.1055 64.338 80.8642 63.9848 80.4268 63.4513L74.6901 56.4524C74.2442 55.9084 73.9367 55.592 73.7677 55.5032C73.5987 55.4143 73.3845 55.3931 73.1252 55.4395C72.8668 55.4764 72.5885 55.617 72.2904 55.8614L71.9373 56.1508L71.6993 55.8605L77.2624 51.3006L77.5003 51.591L77.1472 51.8804C76.8386 52.1333 76.6352 52.3919 76.5369 52.6561C76.4609 52.8408 76.4566 53.0543 76.5239 53.2964C76.5693 53.4691 76.8106 53.8223 77.2479 54.3558L82.9847 61.3547C83.4306 61.8987 83.7381 62.2151 83.9071 62.3039C84.0813 62.3885 84.2977 62.4123 84.556 62.3755C84.8153 62.3291 85.0941 62.1837 85.3922 61.9393L85.7453 61.6499Z" fill="#B4424D"/>
<path d="M67.3377 59.2121L70.7223 62.5708L70.4436 62.8517C69.3506 62.1863 68.283 61.9082 67.2409 62.0175C66.1987 62.1267 65.3155 62.5461 64.5914 63.2759C63.9863 63.8856 63.6065 64.6188 63.452 65.4754C63.2974 66.3321 63.3867 67.1591 63.7198 67.9565C64.1445 68.9784 64.801 69.93 65.6892 70.8114C66.5629 71.6784 67.4694 72.3589 68.4087 72.8526C69.3432 73.3417 70.2287 73.5343 71.0653 73.4307C71.897 73.3223 72.6845 72.8936 73.4277 72.1447C74.0375 71.5302 74.4605 70.8351 74.6966 70.0594C74.9375 69.2789 75.0102 68.2791 74.9147 67.0599L75.7572 67.896C75.7854 69.0103 75.6338 69.9936 75.3022 70.8462C74.9707 71.6892 74.4119 72.5068 73.6258 73.2989C72.592 74.3407 71.4637 75.06 70.2409 75.4569C69.0228 75.8489 67.8034 75.8775 66.5825 75.5427C65.3665 75.203 64.3167 74.5948 63.4334 73.7182C62.502 72.794 61.8593 71.675 61.5051 70.3611C61.1557 69.0425 61.1603 67.7416 61.5188 66.4585C61.8821 65.1706 62.5259 64.061 63.4502 63.1296C64.1314 62.4431 64.9996 61.8658 66.0548 61.3979C66.6659 61.1277 67.031 60.9326 67.1501 60.8126C67.3026 60.659 67.3784 60.4722 67.3776 60.2522C67.3767 60.0226 67.2705 59.7695 67.059 59.493L67.3377 59.2121Z" fill="#B4424D"/>
<path d="M49.8088 78.9368C51.0687 77.1419 52.653 76.1111 54.5618 75.8443C56.4747 75.5721 58.2448 76.0533 59.872 77.2879C61.2622 78.3425 62.1768 79.6773 62.6156 81.2922C63.199 83.4327 62.7446 85.4863 61.2525 87.4531C59.7564 89.4252 57.9313 90.4432 55.7775 90.5071C54.0755 90.5572 52.4997 90.0324 51.0503 88.9328C49.423 87.6983 48.4868 86.1178 48.2418 84.1916C47.9955 82.2558 48.5178 80.5042 49.8088 78.9368ZM50.3997 79.2322C49.6394 80.2344 49.5728 81.3852 50.2001 82.6846C50.7177 83.748 51.7632 84.8765 53.3366 86.0702C55.2064 87.4887 56.8378 88.2086 58.231 88.2298C59.2035 88.246 60.0025 87.8418 60.628 87.0174C61.049 86.4624 61.2659 85.8968 61.2785 85.3207C61.2934 84.5849 61.0238 83.7988 60.4698 82.9625C59.9103 82.122 59.0217 81.2399 57.8039 80.316C56.3545 79.2164 55.1692 78.5294 54.2482 78.2551C53.3217 77.9768 52.5509 77.9353 51.9357 78.1308C51.3246 78.3209 50.8126 78.688 50.3997 79.2322Z" fill="#B4424D"/>
<path d="M41.7206 90.3977L45.7352 92.6166L45.5252 92.9757C44.4337 92.5645 43.3926 92.5158 42.402 92.8296C41.4089 93.1341 40.687 93.6717 40.2363 94.4424C39.888 95.0379 39.7719 95.6047 39.8881 96.1428C40.0019 96.6716 40.266 97.0573 40.6805 97.2997C40.9433 97.4534 41.2126 97.5287 41.4887 97.5256C41.8621 97.5168 42.2924 97.4041 42.7795 97.1876C43.1326 97.0259 43.8447 96.5922 44.9156 95.8866C46.4114 94.8966 47.6046 94.337 48.4952 94.2075C49.3824 94.084 50.2171 94.251 50.9995 94.7086C51.9919 95.2891 52.6201 96.1776 52.884 97.3741C53.1455 98.5613 52.928 99.7505 52.2313 100.941C52.0128 101.315 51.7682 101.646 51.4977 101.934C51.2271 102.223 50.8399 102.557 50.3361 102.936C50.0554 103.148 49.8621 103.344 49.7563 103.525C49.6675 103.677 49.632 103.872 49.6497 104.109C49.6674 104.347 49.7652 104.588 49.9431 104.833L49.7536 105.157L45.2699 102.535L45.4595 102.211C46.8707 102.691 48.1226 102.762 49.215 102.421C50.305 102.071 51.0976 101.473 51.5927 100.627C51.9752 99.9728 52.101 99.349 51.9703 98.7554C51.843 98.156 51.5429 97.7179 51.07 97.4413C50.7897 97.2774 50.4739 97.1945 50.1224 97.1926C49.7743 97.1849 49.3947 97.2645 48.9836 97.4315C48.5667 97.5951 47.9431 97.9512 47.1128 98.4999C45.9498 99.2692 45.0432 99.781 44.3929 100.035C43.7427 100.29 43.1118 100.41 42.5004 100.398C41.8923 100.379 41.311 100.207 40.7563 99.8828C39.8106 99.3296 39.2081 98.511 38.9489 97.4269C38.6897 96.3429 38.8692 95.2725 39.4873 94.2158C39.7127 93.8305 39.9779 93.4842 40.2831 93.1769C40.5136 92.9434 40.8396 92.6875 41.2611 92.409C41.6801 92.1213 41.9357 91.8987 42.0279 91.741C42.1167 91.5892 42.14 91.4422 42.0978 91.3C42.0556 91.1578 41.8787 90.9446 41.5669 90.6604L41.7206 90.3977Z" fill="#B4424D"/>
<path d="M34.2342 103.962L38.455 105.758L38.2829 106.137C37.155 105.84 36.1145 105.898 35.1612 106.312C34.2046 106.716 33.5416 107.325 33.1722 108.138C32.8868 108.766 32.8294 109.342 33.0002 109.865C33.1676 110.38 33.4699 110.736 33.907 110.935C34.1841 111.061 34.4598 111.108 34.7341 111.077C35.1046 111.03 35.5211 110.873 35.9834 110.608C36.3181 110.411 36.982 109.907 37.9749 109.095C39.3614 107.957 40.4909 107.278 41.3636 107.058C42.2334 106.844 43.0809 106.925 43.906 107.3C44.9527 107.775 45.6687 108.595 46.0539 109.758C46.4357 110.912 46.3411 112.117 45.7702 113.373C45.5911 113.767 45.3818 114.122 45.1423 114.436C44.9027 114.751 44.5517 115.123 44.0894 115.551C43.8319 115.791 43.6598 116.006 43.5731 116.197C43.5003 116.357 43.4849 116.554 43.5269 116.789C43.5689 117.024 43.691 117.254 43.893 117.479L43.7377 117.821L39.0088 115.672L39.1641 115.33C40.6173 115.663 41.8697 115.605 42.9215 115.154C43.9699 114.695 44.697 114.018 45.1027 113.126C45.4162 112.436 45.4774 111.803 45.2865 111.226C45.0984 110.642 44.755 110.237 44.2562 110.011C43.9607 109.876 43.638 109.826 43.2881 109.86C42.9411 109.888 42.5717 110.007 42.1798 110.215C41.7819 110.42 41.1981 110.838 40.4284 111.469C39.3504 112.354 38.501 112.956 37.8803 113.275C37.2595 113.595 36.6444 113.78 36.0348 113.83C35.428 113.873 34.8322 113.762 34.2472 113.496C33.2497 113.043 32.5665 112.291 32.1976 111.239C31.8286 110.187 31.8974 109.104 32.404 107.989C32.5887 107.583 32.817 107.211 33.089 106.874C33.2945 106.619 33.5925 106.331 33.9832 106.01C34.3705 105.681 34.602 105.433 34.6775 105.267C34.7503 105.107 34.7584 104.959 34.7019 104.821C34.6453 104.684 34.4474 104.49 34.1082 104.24L34.2342 103.962Z" fill="#B4424D"/>
<path d="M36.3251 125.853L34.8375 130.48L35.9354 131.44C36.3024 131.757 36.6243 131.96 36.9012 132.049C37.2682 132.167 37.5863 132.106 37.8554 131.866C38.0143 131.725 38.2292 131.322 38.5002 130.656L38.8576 130.771L37.4569 135.126L37.0996 135.012C37.1799 134.519 37.1109 134.07 36.8927 133.666C36.6681 133.26 36.1282 132.674 35.2731 131.909L26.3291 123.865L26.3881 123.681L38.6467 122.412C39.809 122.288 40.5687 122.124 40.9258 121.919C41.1958 121.764 41.4111 121.493 41.5717 121.104L41.929 121.219L39.8917 127.554L39.5344 127.439L39.6182 127.179C39.7818 126.67 39.8259 126.29 39.7505 126.038C39.693 125.864 39.5677 125.745 39.3745 125.683C39.2586 125.646 39.1333 125.627 38.9985 125.626C38.9364 125.62 38.6639 125.639 38.181 125.683L36.3251 125.853ZM35.5048 125.952L30.3671 126.453L34.2315 129.912L35.5048 125.952Z" fill="#B4424D"/>
<path d="M21.0978 145.012L25.6542 145.542L25.5961 145.953C24.4302 145.987 23.4485 146.337 22.651 147.003C21.8478 147.662 21.3838 148.433 21.2592 149.317C21.1628 150 21.2705 150.569 21.5822 151.023C21.8881 151.469 22.2788 151.725 22.7544 151.792C23.0557 151.835 23.3335 151.802 23.5878 151.695C23.9299 151.545 24.2853 151.277 24.6538 150.892C24.9192 150.609 25.4134 149.937 26.1365 148.878C27.1449 147.395 28.0365 146.424 28.8114 145.966C29.5853 145.515 30.421 145.353 31.3185 145.48C32.457 145.64 33.3754 146.224 34.0735 147.231C34.7659 148.23 35.0158 149.413 34.8231 150.779C34.7627 151.208 34.662 151.607 34.5211 151.976C34.3802 152.346 34.1486 152.801 33.8263 153.343C33.6471 153.646 33.5428 153.901 33.5135 154.109C33.4889 154.283 33.5299 154.476 33.6365 154.69C33.7431 154.903 33.9251 155.089 34.1827 155.248L34.1303 155.62L28.9868 154.894L29.0392 154.523C30.5274 154.432 31.7122 154.022 32.5938 153.293C33.4696 152.555 33.9759 151.701 34.1128 150.73C34.2186 149.98 34.0984 149.355 33.7522 148.856C33.4069 148.349 32.9631 148.058 32.4206 147.981C32.0991 147.936 31.7754 147.979 31.4495 148.111C31.1245 148.236 30.8035 148.453 30.4865 148.764C30.1628 149.073 29.721 149.64 29.161 150.462C28.3769 151.615 27.7322 152.433 27.2271 152.915C26.722 153.397 26.1841 153.748 25.6135 153.968C25.0438 154.181 24.4408 154.243 23.8046 154.154C22.7196 154.001 21.8516 153.472 21.2005 152.567C20.5494 151.662 20.3093 150.604 20.4802 149.392C20.5425 148.95 20.6566 148.529 20.8223 148.129C20.947 147.825 21.1515 147.465 21.4358 147.047C21.7144 146.622 21.8664 146.319 21.8919 146.138C21.9164 145.964 21.8822 145.819 21.7892 145.704C21.6962 145.588 21.4516 145.458 21.0553 145.313L21.0978 145.012Z" fill="#B4424D"/>
<path d="M20.1952 166.969L25.7931 167.131L25.801 166.857C25.8262 165.985 25.5706 165.345 25.0343 164.937C24.498 164.529 23.6974 164.255 22.6323 164.116L22.6434 163.731L29.8436 163.939L29.8324 164.324C29.0459 164.383 28.3986 164.537 27.8907 164.786C27.383 165.028 27.0397 165.319 26.8607 165.659C26.6749 165.999 26.5726 166.497 26.5537 167.153L30.4275 167.264C31.1847 167.286 31.6487 167.269 31.8195 167.213C31.9905 167.151 32.1326 167.033 32.2458 166.86C32.3591 166.688 32.4214 166.405 32.4327 166.013L32.4564 165.192C32.4935 163.907 32.2257 162.871 31.653 162.083C31.0805 161.288 30.1907 160.704 28.9835 160.331L28.9944 159.956L33.3473 160.701L33.0041 172.586L32.6289 172.575L32.642 172.119C32.6536 171.72 32.5919 171.397 32.4569 171.149C32.3673 170.971 32.209 170.831 31.9819 170.73C31.8217 170.651 31.3969 170.601 30.7073 170.581L21.6615 170.32C21.0395 170.302 20.657 170.308 20.5141 170.338C20.2755 170.398 20.0894 170.518 19.9556 170.697C19.7589 170.949 19.6541 171.297 19.6412 171.744L19.6281 172.2L19.2528 172.189L19.5852 160.679L23.6518 160.796L23.6406 161.182C22.6412 161.349 21.9199 161.606 21.4769 161.952C21.034 162.291 20.7018 162.782 20.4803 163.425C20.3476 163.8 20.2663 164.508 20.2362 165.549L20.1952 166.969Z" fill="#B4424D"/>
<path d="M19.4388 177.54L23.1468 177.202L23.1799 177.565C22.3442 177.859 21.753 178.154 21.4065 178.45C21.0532 178.747 20.7863 179.135 20.6058 179.613C20.5079 179.88 20.4881 180.334 20.5464 180.974L20.6394 181.994L31.2076 181.031C31.9081 180.967 32.3425 180.89 32.5109 180.8C32.6786 180.703 32.8197 180.538 32.9342 180.303C33.0413 180.062 33.077 179.747 33.0414 179.356L33 178.901L33.3738 178.867L34.0276 186.041L33.6538 186.075L33.6123 185.62C33.5761 185.223 33.4762 184.909 33.3127 184.68C33.2024 184.513 33.0282 184.39 32.79 184.31C32.6216 184.25 32.1938 184.252 31.5068 184.314L20.9387 185.278L21.0289 186.268C21.113 187.191 21.3694 187.843 21.7981 188.225C22.3971 188.761 23.2088 189.061 24.2333 189.124L24.2683 189.508L20.5604 189.845L19.4388 177.54Z" fill="#B4424D"/>
<path d="M21.3357 196.415L25.8056 195.385L25.8891 195.792C24.8021 196.215 23.9947 196.874 23.467 197.77C22.9314 198.66 22.7531 199.542 22.9323 200.416C23.0708 201.092 23.363 201.592 23.8089 201.915C24.2468 202.232 24.7009 202.343 25.1714 202.246C25.4695 202.185 25.7203 202.061 25.9237 201.875C26.1958 201.619 26.4407 201.248 26.6586 200.761C26.8135 200.405 27.0538 199.606 27.3796 198.366C27.8317 196.63 28.3459 195.417 28.9223 194.726C29.5001 194.041 30.2329 193.608 31.1208 193.426C32.2472 193.195 33.3081 193.437 34.3037 194.151C35.2912 194.86 35.9235 195.89 36.2004 197.242C36.2873 197.666 36.3264 198.076 36.3177 198.471C36.3089 198.867 36.2436 199.374 36.1219 199.992C36.0545 200.337 36.0419 200.613 36.084 200.818C36.1193 200.99 36.2229 201.159 36.3948 201.324C36.5666 201.489 36.8006 201.603 37.0967 201.667L37.1721 202.035L32.0834 203.077L32.0081 202.71C33.3795 202.125 34.3581 201.341 34.9437 200.358C35.5214 199.37 35.7118 198.395 35.5149 197.434C35.3629 196.692 35.0399 196.144 34.5462 195.79C34.051 195.428 33.5351 195.303 32.9984 195.413C32.6804 195.478 32.3899 195.627 32.1271 195.861C31.8628 196.087 31.6335 196.4 31.4391 196.799C31.238 197.199 31.0117 197.881 30.7603 198.844C30.4085 200.193 30.0755 201.179 29.7614 201.803C29.4474 202.427 29.0585 202.938 28.5948 203.337C28.1297 203.729 27.5824 203.989 26.953 204.118C25.8796 204.338 24.8844 204.131 23.9675 203.498C23.0506 202.864 22.4693 201.947 22.2236 200.748C22.134 200.311 22.1001 199.876 22.1219 199.443C22.1376 199.116 22.2093 198.707 22.337 198.219C22.4567 197.725 22.4983 197.388 22.4616 197.209C22.4263 197.037 22.3455 196.912 22.2191 196.834C22.0927 196.757 21.8186 196.716 21.3968 196.713L21.3357 196.415Z" fill="#B4424D"/>
<path d="M37.5386 206.098L37.8981 205.99L39.9682 212.879L39.6088 212.987L39.4774 212.55C39.3625 212.167 39.202 211.88 38.9959 211.688C38.8546 211.547 38.6603 211.464 38.4128 211.439C38.2359 211.415 37.8171 211.502 37.1564 211.7L28.4898 214.305C27.8161 214.507 27.4058 214.67 27.2588 214.791C27.1118 214.913 27.0098 215.103 26.953 215.36C26.8877 215.613 26.9105 215.924 27.0214 216.293L27.1528 216.73L26.7933 216.838L24.7232 209.949L25.0827 209.841L25.2141 210.279C25.3289 210.661 25.4894 210.948 25.6955 211.14C25.8368 211.282 26.0321 211.368 26.2816 211.399C26.4584 211.423 26.8772 211.336 27.5379 211.138L36.2046 208.533C36.8782 208.331 37.2885 208.168 37.4355 208.047C37.5806 207.918 37.6858 207.728 37.7511 207.475C37.808 207.218 37.7809 206.905 37.67 206.535L37.5386 206.098Z" fill="#B4424D"/>
<path d="M28.3521 221.604L31.7954 220.188L31.9343 220.525C31.2223 221.052 30.7445 221.508 30.5008 221.894C30.2509 222.282 30.1102 222.731 30.0788 223.241C30.064 223.525 30.1788 223.965 30.4233 224.559L30.8131 225.506L40.627 221.469C41.2775 221.201 41.6699 221 41.8043 220.864C41.936 220.722 42.022 220.522 42.0622 220.264C42.0935 220.003 42.0346 219.69 41.8853 219.328L41.7116 218.905L42.0588 218.763L44.7993 225.424L44.4521 225.567L44.2784 225.145C44.1266 224.776 43.9387 224.506 43.7147 224.334C43.5602 224.208 43.3574 224.141 43.1061 224.135C42.9277 224.128 42.5195 224.256 41.8815 224.518L32.0676 228.556L32.4458 229.475C32.7984 230.332 33.2358 230.88 33.7581 231.118C34.4887 231.454 35.3526 231.501 36.35 231.259L36.4967 231.615L33.0534 233.032L28.3521 221.604Z" fill="#B4424D"/>
<path d="M46.3527 242.147L49.7092 240.25C50.357 239.884 50.7446 239.615 50.8721 239.442C50.9904 239.266 51.0431 239.05 51.03 238.793C51.017 238.536 50.8558 238.134 50.5464 237.587L50.8732 237.402L54.3367 243.532L54.0099 243.717C53.6972 243.163 53.4358 242.817 53.2259 242.68C53.0068 242.539 52.7932 242.477 52.5851 242.494C52.3736 242.505 51.944 242.693 51.2963 243.059L43.5234 247.451C42.8756 247.817 42.4926 248.088 42.3743 248.263C42.2468 248.436 42.1895 248.651 42.2025 248.908C42.2156 249.165 42.3768 249.567 42.6862 250.115L42.3594 250.299L39.2152 244.735C38.3968 243.286 37.898 242.169 37.7189 241.385C37.5398 240.601 37.6014 239.843 37.9036 239.113C38.1999 238.387 38.7102 237.819 39.4345 237.409C40.3178 236.91 41.2276 236.816 42.164 237.126C42.7587 237.326 43.3536 237.739 43.9487 238.366L46.376 233.196C46.6872 232.523 46.8626 232.07 46.9023 231.838C46.9484 231.494 46.8905 231.157 46.7285 230.829L47.0553 230.645L49.1863 234.416L45.9086 241.361L46.3527 242.147ZM40.4789 245.465L45.7256 242.501L45.4411 241.998C44.9787 241.179 44.559 240.608 44.1823 240.285C43.7996 239.965 43.349 239.8 42.8306 239.79C42.303 239.778 41.7242 239.949 41.0941 240.305C40.1814 240.821 39.6286 241.417 39.4357 242.093C39.2395 242.763 39.4092 243.572 39.9449 244.52L40.4789 245.465Z" fill="#B4424D"/>
<path d="M56.6044 253.453L59.5165 257.343L60.9351 257.004C61.406 256.888 61.7578 256.743 61.9906 256.568C62.2993 256.337 62.4335 256.043 62.3932 255.684C62.3704 255.473 62.1659 255.064 61.7796 254.458L62.0801 254.233L64.8219 257.896L64.5214 258.121C64.166 257.77 63.7604 257.567 63.3046 257.511C62.8433 257.459 62.0533 257.561 60.9343 257.815L49.1978 260.454L49.0823 260.3L55.1411 249.568C55.7129 248.548 56.0186 247.834 56.0582 247.424C56.0883 247.114 55.9912 246.781 55.767 246.425L56.0675 246.2L60.0556 251.528L59.7551 251.753L59.591 251.534C59.2708 251.106 58.9863 250.85 58.7375 250.766C58.5617 250.712 58.3926 250.746 58.2301 250.867C58.1326 250.94 58.0446 251.031 57.9661 251.141C57.9254 251.188 57.7832 251.421 57.5393 251.841L56.6044 253.453ZM56.2101 254.179L53.6452 258.659L58.7027 257.509L56.2101 254.179Z" fill="#B4424D"/>
<circle cx="169.5" cy="169.5" r="123.5" stroke="#AE3B43" stroke-width="4"/>
<circle cx="170" cy="170" r="167.291" stroke="#AE3B43" stroke-width="5.41833"/>
</svg>
